<svg width="287" height="214" viewBox="0 0 287 214" fill="none" xmlns="http://www.w3.org/2000/svg">
<path d="M170.765 0C162.848 0 155.37 3.20913 150.037 8.76782L111.385 44.5268C107.867 48.1944 103.193 50.2001 98.1898 50.2001C87.9084 50.2001 79.5512 41.5469 79.5512 30.8306C79.5512 20.1144 87.9084 11.4612 98.1898 11.4612C103.193 11.4612 107.867 13.4669 111.605 17.3637L117.818 23.0943L126.12 15.4153L119.193 9.05435C113.585 3.20914 106.107 0 98.1898 0C81.8054 0 68.5 13.8681 68.5 30.8306C68.5 47.7932 81.8054 61.6613 98.1898 61.6613C106.107 61.6613 113.585 58.4521 118.918 52.8934L157.57 17.1345C161.088 13.4669 165.762 11.4612 170.765 11.4612C181.047 11.4612 189.404 20.1144 189.404 30.8306C189.404 41.5469 181.047 50.2001 170.765 50.2001C165.817 50.2001 161.088 48.1944 157.35 44.2975L151.082 38.5096L142.78 46.1886L149.762 52.6069C155.37 58.3948 162.793 61.604 170.765 61.604C187.149 61.604 200.455 47.7932 200.455 30.7733C200.455 13.7534 187.149 0 170.765 0Z" fill="#DC2626"/>
<path d="M188.81 22.105C180.893 22.105 173.415 25.3141 168.082 30.8728L129.43 66.6317C125.912 70.2993 121.238 72.305 116.235 72.305C105.953 72.305 97.5963 63.6518 97.5963 52.9356C97.5963 42.2194 105.953 33.5662 116.235 33.5662C121.238 33.5662 125.912 35.5719 129.65 39.4687L135.863 45.1993L144.165 37.5203L137.238 31.1593C131.63 25.3141 124.152 22.105 116.235 22.105C99.8506 22.105 86.5451 35.973 86.5451 52.9356C86.5451 69.8982 99.8506 83.7662 116.235 83.7662C124.152 83.7662 131.63 80.5571 136.963 74.9984L175.615 39.2395C179.133 35.5719 183.807 33.5662 188.81 33.5662C199.092 33.5662 207.449 42.2194 207.449 52.9356C207.449 63.6518 199.092 72.305 188.81 72.305C183.862 72.305 179.133 70.2993 175.395 66.4025L169.127 60.6146L160.825 68.2936L167.807 74.7119C173.415 80.4998 180.838 83.7089 188.81 83.7089C205.195 83.7089 218.5 69.8982 218.5 52.8783C218.5 35.8584 205.195 22.105 188.81 22.105Z" fill="#1D4ED8"/>
<g filter="url(#filter0_dd_127_6287)">
<path d="M75.1194 118.81C75.1194 117.863 75.3905 117.119 75.9326 116.578C76.4747 116.037 77.2202 115.766 78.1689 115.766H81.7267C82.6755 115.766 83.4209 116.037 83.9631 116.578C84.5052 117.119 84.7763 117.863 84.7763 118.81V162.433C84.7763 165.882 84.1664 169.061 82.9466 171.969C81.7945 174.81 80.1342 177.244 77.9656 179.273C75.8648 181.302 73.3574 182.892 70.4434 184.042C67.5294 185.191 64.3443 185.766 60.8881 185.766C57.432 185.766 54.2469 185.191 51.3329 184.042C48.4189 182.892 45.8776 181.302 43.709 179.273C41.6082 177.244 39.9479 174.81 38.7281 171.969C37.576 169.061 37 165.882 37 162.433V118.81C37 117.863 37.2711 117.119 37.8132 116.578C38.3554 116.037 39.1008 115.766 40.0496 115.766H43.6074C44.5561 115.766 45.3016 116.037 45.8437 116.578C46.3858 117.119 46.6569 117.863 46.6569 118.81V162.433C46.6569 166.491 47.8767 169.873 50.3164 172.578C52.756 175.283 56.2799 176.636 60.8881 176.636C65.4964 176.636 69.0203 175.283 71.4599 172.578C73.8996 169.873 75.1194 166.491 75.1194 162.433V118.81Z" fill="white"/>
<path d="M128.955 184.752C128.006 184.752 127.261 184.481 126.719 183.94C126.177 183.399 125.906 182.655 125.906 181.708V156.346C125.906 153.776 125.092 151.544 123.466 149.65C121.907 147.689 119.501 146.708 116.249 146.708C112.996 146.708 110.556 147.689 108.93 149.65C107.371 151.544 106.592 153.776 106.592 156.346V181.708C106.592 182.655 106.321 183.399 105.778 183.94C105.236 184.481 104.491 184.752 103.542 184.752H100.493C99.5438 184.752 98.7984 184.481 98.2563 183.94C97.7141 183.399 97.4431 182.655 97.4431 181.708V156.346C97.4431 153.911 97.8835 151.578 98.7645 149.346C99.7133 147.114 101.001 145.187 102.627 143.563C104.254 141.873 106.219 140.554 108.523 139.607C110.827 138.592 113.402 138.085 116.249 138.085C119.095 138.085 121.67 138.592 123.974 139.607C126.278 140.554 128.244 141.873 129.87 143.563C131.496 145.187 132.75 147.114 133.631 149.346C134.58 151.578 135.054 153.911 135.054 156.346V181.708C135.054 182.655 134.783 183.399 134.241 183.94C133.699 184.481 132.953 184.752 132.005 184.752H128.955Z" fill="white"/>
<path d="M151.342 131.998C150.394 131.998 149.648 131.728 149.106 131.187C148.564 130.645 148.293 129.901 148.293 128.955V123.882C148.293 122.935 148.564 122.191 149.106 121.65C149.648 121.109 150.394 120.839 151.342 120.839H154.392C155.341 120.839 156.086 121.109 156.628 121.65C157.17 122.191 157.441 122.935 157.441 123.882V128.955C157.441 129.901 157.17 130.645 156.628 131.187C156.086 131.728 155.341 131.998 154.392 131.998H151.342ZM151.342 184.752C150.394 184.752 149.648 184.481 149.106 183.94C148.564 183.399 148.293 182.655 148.293 181.708V142.143C148.293 141.196 148.564 140.452 149.106 139.911C149.648 139.37 150.394 139.1 151.342 139.1H154.392C155.341 139.1 156.086 139.37 156.628 139.911C157.17 140.452 157.441 141.196 157.441 142.143V181.708C157.441 182.655 157.17 183.399 156.628 183.94C156.086 184.481 155.341 184.752 154.392 184.752H151.342Z" fill="white"/>
<path d="M189.103 184.752C184.02 184.752 180.259 183.365 177.819 180.592C175.447 177.819 174.262 173.964 174.262 169.027V148.737C174.262 148.061 173.923 147.723 173.245 147.723H170.195C169.247 147.723 168.501 147.452 167.959 146.911C167.417 146.37 167.146 145.626 167.146 144.679V142.143C167.146 141.196 167.417 140.452 167.959 139.911C168.501 139.37 169.247 139.1 170.195 139.1H173.245C173.923 139.1 174.262 138.761 174.262 138.085V130.984C174.262 130.037 174.533 129.293 175.075 128.752C175.617 128.211 176.362 127.94 177.311 127.94H180.361C181.309 127.94 182.055 128.211 182.597 128.752C183.139 129.293 183.41 130.037 183.41 130.984V138.085C183.41 138.761 183.749 139.1 184.427 139.1H192.051C192.999 139.1 193.745 139.37 194.287 139.911C194.829 140.452 195.1 141.196 195.1 142.143V144.679C195.1 145.626 194.829 146.37 194.287 146.911C193.745 147.452 192.999 147.723 192.051 147.723H184.427C183.749 147.723 183.41 148.061 183.41 148.737V168.52C183.41 170.887 183.851 172.747 184.732 174.1C185.68 175.452 187.442 176.129 190.018 176.129H192.051C192.999 176.129 193.745 176.399 194.287 176.94C194.829 177.481 195.1 178.225 195.1 179.172V181.708C195.1 182.655 194.829 183.399 194.287 183.94C193.745 184.481 192.999 184.752 192.051 184.752H189.103Z" fill="white"/>
<path d="M226.112 177.143C228.213 177.143 230.144 176.737 231.906 175.926C233.736 175.114 235.294 174.032 236.582 172.679C237.937 171.327 238.988 169.737 239.733 167.911C240.479 166.017 240.851 164.022 240.851 161.926C240.851 159.829 240.479 157.868 239.733 156.042C238.988 154.148 237.937 152.525 236.582 151.172C235.294 149.819 233.736 148.737 231.906 147.926C230.144 147.114 228.213 146.708 226.112 146.708C224.011 146.708 222.046 147.114 220.216 147.926C218.454 148.737 216.895 149.819 215.54 151.172C214.252 152.525 213.236 154.148 212.491 156.042C211.745 157.868 211.372 159.829 211.372 161.926C211.372 164.022 211.745 166.017 212.491 167.911C213.236 169.737 214.252 171.327 215.54 172.679C216.895 174.032 218.454 175.114 220.216 175.926C222.046 176.737 224.011 177.143 226.112 177.143ZM226.112 185.766C222.791 185.766 219.674 185.158 216.76 183.94C213.914 182.655 211.406 180.93 209.238 178.766C207.069 176.602 205.341 174.1 204.053 171.259C202.834 168.351 202.224 165.24 202.224 161.926C202.224 158.612 202.834 155.534 204.053 152.694C205.341 149.786 207.069 147.249 209.238 145.085C211.406 142.921 213.914 141.23 216.76 140.013C219.674 138.728 222.791 138.085 226.112 138.085C229.432 138.085 232.516 138.728 235.362 140.013C238.276 141.23 240.817 142.921 242.986 145.085C245.155 147.249 246.849 149.786 248.069 152.694C249.356 155.534 250 158.612 250 161.926C250 165.24 249.356 168.351 248.069 171.259C246.849 174.1 245.155 176.602 242.986 178.766C240.817 180.93 238.276 182.655 235.362 183.94C232.516 185.158 229.432 185.766 226.112 185.766Z" fill="white"/>
</g>
<defs>
<filter id="filter0_dd_127_6287" x="0" y="82.7662" width="287" height="131" filterUnits="userSpaceOnUse" color-interpolation-filters="sRGB">
<feFlood flood-opacity="0" result="BackgroundImageFix"/>
<feColorMatrix in="SourceAlpha" type="matrix" values="0 0 0 0 0 0 0 0 0 0 0 0 0 0 0 0 0 0 127 0" result="hardAlpha"/>
<feOffset dx="7" dy="-3"/>
<feGaussianBlur stdDeviation="15"/>
<feComposite in2="hardAlpha" operator="out"/>
<feColorMatrix type="matrix" values="0 0 0 0 0.862745 0 0 0 0 0.14902 0 0 0 0 0.14902 0 0 0 0.25 0"/>
<feBlend mode="normal" in2="BackgroundImageFix" result="effect1_dropShadow_127_6287"/>
<feColorMatrix in="SourceAlpha" type="matrix" values="0 0 0 0 0 0 0 0 0 0 0 0 0 0 0 0 0 0 127 0" result="hardAlpha"/>
<feOffset dx="-7" dy="-2"/>
<feGaussianBlur stdDeviation="15"/>
<feComposite in2="hardAlpha" operator="out"/>
<feColorMatrix type="matrix" values="0 0 0 0 0.113725 0 0 0 0 0.305882 0 0 0 0 0.847059 0 0 0 0.25 0"/>
<feBlend mode="normal" in2="effect1_dropShadow_127_6287" result="effect2_dropShadow_127_6287"/>
<feBlend mode="normal" in="SourceGraphic" in2="effect2_dropShadow_127_6287" result="shape"/>
</filter>
</defs>
</svg>
